HIERARCHY
ROOT Hips
{
	OFFSET -0.001795 -0.223333 0.028219
	CHANNELS 6 Xposition Yposition Zposition Zrotation Yrotation Xrotation 
	JOINT LeftUpLeg
	{
		OFFSET 0.069520 -0.091406 -0.006815
		CHANNELS 3 Zrotation Yrotation Xrotation
		JOINT LeftLeg
		{
			OFFSET 0.034277 -0.375199 -0.004496
			CHANNELS 3 Zrotation Yrotation Xrotation
			JOINT LeftFoot
			{
				OFFSET -0.013596 -0.397961 -0.043693
				CHANNELS 3 Zrotation Yrotation Xrotation
				JOINT LeftToe
				{
					OFFSET 0.026358 -0.055791 0.119288
					CHANNELS 3 Zrotation Yrotation Xrotation
					End Site
					{
						OFFSET 0.000000 0.000000 0.000000
					}
				}
			}
		}
	}
	JOINT RightUpLeg
	{
		OFFSET -0.067670 -0.090522 -0.004320
		CHANNELS 3 Zrotation Yrotation Xrotation
		JOINT RightLeg
		{
			OFFSET -0.038290 -0.382569 -0.008850
			CHANNELS 3 Zrotation Yrotation Xrotation
			JOINT RightFoot
			{
				OFFSET 0.015774 -0.398415 -0.042312
				CHANNELS 3 Zrotation Yrotation Xrotation
				JOINT RightToe
				{
					OFFSET -0.025372 -0.048144 0.123348
					CHANNELS 3 Zrotation Yrotation Xrotation
					End Site
					{
						OFFSET 0.000000 0.000000 0.000000
					}
				}
			}
		}
	}
	JOINT Spine
	{
		OFFSET -0.002533 0.108963 -0.026696
		CHANNELS 3 Zrotation Yrotation Xrotation
		JOINT Spine1
		{
			OFFSET 0.005487 0.135180 0.001092
			CHANNELS 3 Zrotation Yrotation Xrotation
			JOINT Spine2
			{
				OFFSET 0.001457 0.052922 0.025425
				CHANNELS 3 Zrotation Yrotation Xrotation
				JOINT Neck
				{
					OFFSET -0.002778 0.213870 -0.042857
					CHANNELS 3 Zrotation Yrotation Xrotation
					JOINT Head
					{
						OFFSET 0.005152 0.064970 0.051349
						CHANNELS 3 Zrotation Yrotation Xrotation
						End Site
						{
							OFFSET 0.000000 0.000000 0.000000
						}
					}
				}
				JOINT LeftShoulder
				{
					OFFSET 0.078845 0.121749 -0.034090
					CHANNELS 3 Zrotation Yrotation Xrotation
					JOINT LeftArm
					{
						OFFSET 0.090977 0.030469 -0.008868
						CHANNELS 3 Zrotation Yrotation Xrotation
						JOINT LeftForeArm
						{
							OFFSET 0.259612 -0.012772 -0.027456
							CHANNELS 3 Zrotation Yrotation Xrotation
							JOINT LeftHand
							{
								OFFSET 0.249234 0.008986 -0.001171
								CHANNELS 3 Zrotation Yrotation Xrotation
								End Site
								{
									OFFSET 0.000000 0.000000 0.000000
								}
							}
						}
					}
				}
				JOINT RightShoulder
				{
					OFFSET -0.081759 0.118833 -0.038615
					CHANNELS 3 Zrotation Yrotation Xrotation
					JOINT RightArm
					{
						OFFSET -0.096012 0.032551 -0.009143
						CHANNELS 3 Zrotation Yrotation Xrotation
						JOINT RightForeArm
						{
							OFFSET -0.253742 -0.013329 -0.021401
							CHANNELS 3 Zrotation Yrotation Xrotation
							JOINT RightHand
							{
								OFFSET -0.255298 0.007772 -0.005559
								CHANNELS 3 Zrotation Yrotation Xrotation
								End Site
								{
									OFFSET 0.000000 0.000000 0.000000
								}
							}
						}
					}
				}
			}
		}
	}
}
MOTION
Frames: 10
Frame Time: 0.050000
0.000000 0.961522 0.000000 -1.322896 11.979573 -0.296872 1.605327 0.305486 6.219807 -3.021036 0.266685 -3.273731 1.701458 7.577355 9.215030 0.000000 0.000000 0.000000 1.308639 -0.289608 2.324289 1.526432 -0.175243 1.567419 -4.260405 -11.546758 8.748931 0.000000 0.000000 0.000000 -0.480920 -0.312738 7.378356 2.919037 0.084746 -23.232179 -0.349259 -2.326065 29.010475 1.819582 1.022468 -22.335023 0.000000 0.000000 0.000000 -23.156746 -0.243051 -2.925570 -52.584986 -4.507800 -6.485448 -9.829134 -22.349855 2.855164 0.000000 0.000000 0.000000 15.019720 4.154102 2.565368 57.757879 10.285678 -3.382741 0.755877 24.614466 1.525528 0.000000 0.000000 0.000000 
0.001266 0.960437 0.001089 -1.300557 12.656691 0.078470 1.550322 0.287190 5.953497 -2.796109 0.250705 -3.659968 2.005881 7.900581 8.644666 0.000000 0.000000 0.000000 0.966131 -0.063938 0.523871 2.766110 -0.365553 4.483185 -4.900204 -12.798487 7.326654 0.000000 0.000000 0.000000 -0.140026 -0.324659 7.133673 2.812387 0.145193 -23.859335 -1.170082 -2.188185 29.711043 2.259141 0.793710 -21.895673 0.000000 0.000000 0.000000 -22.664165 0.075660 -3.207649 -53.557963 -4.473950 -6.669618 -9.725237 -22.843795 2.887533 0.000000 0.000000 0.000000 16.101088 4.235235 2.830579 58.191754 9.738159 -3.759984 -0.277662 24.982992 1.391969 0.000000 0.000000 0.000000 
0.002535 0.959543 0.003222 -1.136372 12.199312 0.453201 1.474723 0.252573 5.053396 -2.961338 0.256947 -2.239178 1.604716 7.238799 8.685888 0.000000 0.000000 0.000000 0.995358 0.155688 -1.384510 2.935427 -0.413281 7.273811 -5.318497 -13.698461 6.916758 0.000000 0.000000 0.000000 -0.503843 -0.310545 7.394742 2.797184 0.155226 -24.245145 -1.138313 -2.319039 30.526706 1.728463 1.045334 -21.755411 0.000000 0.000000 0.000000 -22.830676 0.155481 -3.103001 -53.792010 -5.339292 -6.449722 -9.425460 -22.626190 2.840704 0.000000 0.000000 0.000000 15.740401 4.084486 2.650049 57.683351 9.399211 -3.984698 1.960227 25.445059 1.853143 0.000000 0.000000 0.000000 
0.003584 0.958282 0.006854 -1.036978 11.676166 0.164552 0.802885 0.364710 5.925903 -1.934863 0.186240 -1.394269 1.881696 6.930563 6.817885 0.000000 0.000000 0.000000 0.990487 0.389130 -3.519121 4.091166 -0.795295 12.699289 -5.372950 -13.821135 5.630726 0.000000 0.000000 0.000000 -0.729315 -0.317015 7.867998 3.151533 0.051618 -24.120223 -1.194254 -2.284086 30.979694 2.017043 0.808519 -21.761916 0.000000 0.000000 0.000000 -24.026418 0.853953 -3.598415 -53.635316 -5.168887 -6.522492 -10.233343 -23.267782 3.121944 0.000000 0.000000 0.000000 15.412382 4.122659 2.594432 57.749024 9.409470 -4.019491 2.043937 25.147074 1.837206 0.000000 0.000000 0.000000 
0.004367 0.957242 0.012691 -1.032784 11.531236 -0.195944 1.183781 0.363946 6.477768 -2.589026 0.222527 -0.541172 1.986122 6.763897 5.995783 0.000000 0.000000 0.000000 0.316416 0.744708 -7.424881 5.560176 -1.641605 20.709201 -5.866488 -14.838135 6.573078 0.000000 0.000000 0.000000 -1.373380 -0.333439 9.215721 4.197479 -0.217141 -23.910901 -2.051378 -2.421415 30.687437 2.615854 0.305459 -21.057587 0.000000 0.000000 0.000000 -24.462226 1.405533 -3.910198 -53.252473 -5.486861 -6.311630 -10.199521 -23.975852 3.230467 0.000000 0.000000 0.000000 15.503588 3.932427 2.430659 57.602974 9.449679 -3.973969 2.122057 25.067711 1.835592 0.000000 0.000000 0.000000 
0.004605 0.956582 0.021518 -1.266848 11.742502 -0.890349 1.800122 0.371002 7.893015 -2.843702 0.235966 -0.045250 2.289057 6.952990 5.184066 0.000000 0.000000 0.000000 -0.107792 1.046808 -11.461645 6.688012 -2.831763 29.368711 -5.040282 -13.059738 7.305368 0.000000 0.000000 0.000000 -2.021336 -0.335484 10.294024 4.547641 -0.310294 -23.905972 -1.739694 -4.074856 31.322092 1.800561 0.653656 -22.217191 0.000000 0.000000 0.000000 -25.213705 1.528219 -3.529121 -52.365970 -6.144629 -6.130111 -12.053987 -23.897663 3.703487 0.000000 0.000000 0.000000 14.893678 3.536219 1.897825 57.627877 9.024255 -4.248679 2.835830 25.088927 1.936989 0.000000 0.000000 0.000000 
0.004098 0.956957 0.034322 -1.836093 10.931893 -1.372035 2.685269 0.368795 9.941305 -3.134044 0.271793 -0.759330 2.553450 7.708431 6.058671 0.000000 0.000000 0.000000 -1.128567 1.226849 -15.707542 9.184359 -4.509290 35.149967 -5.251440 -13.601432 8.463818 0.000000 0.000000 0.000000 -1.988835 -0.382183 11.273272 5.312713 -0.513413 -24.148326 -2.718515 -5.028694 31.718645 2.422976 0.001292 -22.501170 0.000000 0.000000 0.000000 -25.634639 1.904428 -3.252305 -51.200413 -6.377176 -6.086135 -12.276347 -23.771946 3.804569 0.000000 0.000000 0.000000 15.591202 3.167437 1.407771 57.157476 8.311560 -4.646253 4.084188 25.863307 2.224776 0.000000 0.000000 0.000000 
0.002474 0.956844 0.051534 -2.543708 9.072441 -1.945243 3.367960 0.410089 12.300614 -3.262020 0.299924 -1.472212 3.512200 9.024003 5.289627 0.000000 0.000000 0.000000 -1.936111 1.356177 -19.320518 11.255408 -5.236541 35.829601 -6.909640 -16.977406 10.354034 0.000000 0.000000 0.000000 -1.913588 -0.418495 12.202263 5.917381 -0.687202 -24.408921 -2.506326 -5.488357 32.083681 0.772349 0.860522 -23.674631 0.000000 0.000000 0.000000 -25.789733 2.147112 -2.790992 -51.120438 -7.102152 -5.994871 -13.055705 -23.999949 4.115988 0.000000 0.000000 0.000000 14.268671 2.667501 0.828437 58.352631 7.503425 -5.118276 4.450269 26.600936 2.333032 0.000000 0.000000 0.000000 
-0.000629 0.955170 0.072567 -3.057739 7.268984 -2.166076 3.608680 0.524050 15.017245 -3.083659 0.308851 -3.195882 3.878736 9.865005 6.122481 0.000000 0.000000 0.000000 -1.957468 1.518348 -21.101962 11.582334 -4.475495 31.404463 -8.556754 -20.066846 11.421689 0.000000 0.000000 0.000000 -1.564072 -0.457607 12.660861 6.461159 -0.883164 -24.023366 -2.924071 -5.705280 31.821554 0.615497 0.816921 -24.894537 0.000000 0.000000 0.000000 -26.020708 2.340034 -2.458674 -50.820094 -7.408123 -5.935364 -12.987357 -24.403857 4.239356 0.000000 0.000000 0.000000 14.200618 2.489878 0.459488 58.573528 7.058149 -5.338797 4.811158 26.191941 2.298351 0.000000 0.000000 0.000000 
-0.005309 0.952713 0.096920 -3.375745 5.778660 -2.099956 3.853760 0.628837 17.480665 -2.815230 0.310481 -4.723866 4.253068 10.264324 5.368356 0.000000 0.000000 0.000000 -1.950485 1.723459 -23.430144 10.775732 -3.292973 25.447532 -9.761672 -22.125509 13.248803 0.000000 0.000000 0.000000 -1.095583 -0.527397 13.435227 6.591232 -0.886325 -24.734004 -3.234921 -6.384232 31.740000 0.124769 0.852466 -25.120447 0.000000 0.000000 0.000000 -25.771136 2.823647 -2.166180 -50.965574 -7.994718 -5.846625 -13.349855 -25.113573 4.558042 0.000000 0.000000 0.000000 13.725682 1.990330 -0.086793 59.350523 5.703479 -6.071413 4.974123 26.830971 2.321722 0.000000 0.000000 0.000000 
